<svg width="50" height="50" viewBox="0 0 50 50" fill="none" xmlns="http://www.w3.org/2000/svg">
<path d="M18.3008 4.87303C18.125 4.91209 17.6855 5.11717 17.3242 5.32225C14.9902 6.59178 13.1445 8.45701 11.9727 10.7226C10.8594 12.8906 10.4395 14.6777 10.4395 17.2851C10.4395 20.1758 11.0645 22.7832 12.4902 25.7324C13.2617 27.334 18.1934 35.8691 19.1113 37.1875C22.3926 41.914 26.9434 44.834 31.4746 45.0976C34.2871 45.2636 36.7383 44.7265 38.9941 43.4375C40.5762 42.5293 40.8789 42.041 40.791 40.4883C40.7129 39.0527 40.127 37.6855 38.5547 35.2148C36.6113 32.1582 35.293 31.0742 33.4473 30.9765C32.373 30.9179 31.875 31.084 30.2734 32.0019C28.9941 32.7344 28.9355 32.7637 28.3203 32.7637C27.5293 32.7637 26.7871 32.4219 26.1426 31.748C25.8496 31.4453 24.9121 29.9121 23.291 27.1191C21.9629 24.8144 20.8105 22.7734 20.7422 22.5781C20.6738 22.3828 20.6152 21.8652 20.6055 21.4258C20.6055 20.7812 20.6445 20.5566 20.8496 20.1562C21.1133 19.6387 21.3379 19.4531 22.998 18.5058C24.1602 17.832 24.7168 17.2851 25.1367 16.416C25.4199 15.8105 25.4395 15.7129 25.4297 14.6484C25.4297 13.6426 25.3906 13.4277 25.1074 12.5976C24.7559 11.5625 23.4863 9.06248 22.6953 7.84178C21.3086 5.70311 19.5898 4.541 18.3008 4.87303ZM19.3945 7.20701C19.873 7.55858 20.4395 8.22264 21.0352 9.16014C21.7188 10.2051 22.8809 12.539 23.1445 13.3789C23.418 14.2676 23.4473 15.2441 23.2129 15.6933C23.0176 16.0644 22.8418 16.1914 21.3379 17.0508C19.9512 17.8418 19.4727 18.2617 19.0625 19.0234C18.3105 20.4297 18.2617 22.2461 18.9355 23.6816C19.2383 24.3262 23.6816 32.0312 24.1309 32.6855C24.7363 33.5644 26.1523 34.5117 27.2461 34.7558C27.9102 34.9121 29.0332 34.8828 29.5605 34.707C29.8145 34.6191 30.6055 34.2187 31.2988 33.8086C32.793 32.9492 33.2715 32.8418 33.9844 33.2031C34.5312 33.4863 35.332 34.2383 35.9277 35.0488C36.6602 36.0449 37.9297 38.1836 38.2812 39.0137C38.6133 39.8144 38.8379 40.8008 38.7402 41.0351C38.6426 41.289 37.0996 42.1191 36.1133 42.4512C32.4414 43.6816 28.7891 43.0664 25.3613 40.6543C23.8574 39.5996 21.8066 37.4414 20.6348 35.6933C20.0488 34.8242 15.0293 26.1426 14.5215 25.1367C13.7109 23.5058 13.0566 21.5625 12.7246 19.7949C12.4902 18.5058 12.4902 15.8594 12.7246 14.7461C13.2422 12.3437 14.1016 10.7812 15.8594 9.03319C16.6602 8.2324 17.168 7.82225 17.8223 7.45115C18.3105 7.16795 18.7695 6.93358 18.8574 6.93358C18.9453 6.93358 19.1895 7.06053 19.3945 7.20701Z" fill="#F95A00"/>
</svg>
