<svg width="50" height="50" viewBox="0 0 50 50" fill="none" xmlns="http://www.w3.org/2000/svg">
<path d="M40.3261 1.27287C40.2549 1.3938 40.17 1.54811 40.0657 1.74693C40.1395 1.72738 40.2259 1.71347 40.3227 1.71347C40.418 1.71347 40.5032 1.72696 40.5763 1.74604C40.4736 1.54689 40.3923 1.39303 40.3261 1.27287ZM43.2409 9.27949C43.2053 9.1238 43.1638 8.94915 43.1183 8.76429C43.1061 8.77946 43.0934 8.7944 43.0801 8.80908C42.9679 8.93306 42.8451 9.00726 42.7448 9.05184C42.9221 9.13592 43.0901 9.21294 43.2409 9.27949ZM37.9005 9.05184C37.8002 9.00726 37.6774 8.93306 37.5652 8.80908C37.5519 8.7944 37.5392 8.77946 37.527 8.76429C37.4815 8.94916 37.44 9.1238 37.4044 9.27948C37.5552 9.21294 37.7232 9.13592 37.9005 9.05184ZM37.2859 9.85333C37.2859 9.85321 37.2863 9.85071 37.2868 9.8462C37.2861 9.85119 37.2858 9.85345 37.2859 9.85333ZM43.3585 9.84619C43.359 9.85071 43.3594 9.85321 43.3594 9.85333C43.3595 9.85345 43.3592 9.85119 43.3585 9.84619Z" fill="#F95A00" stroke="#F95A00" stroke-width="2"/>
<mask id="path-2-inside-1_92_184" fill="white">
<path d="M34.9294 11.5356L34.6774 11.7776V30.0872V48.3868H32.6613H30.6452V38.1532V27.9094L30.3931 27.6674L30.1512 27.4154H25H19.8488L19.6069 27.6674L19.3548 27.9094V38.1532V48.3868H17.3387H15.3226V42.1861V35.9754L15.0706 35.7334L14.8286 35.4813H9.67742H4.52621L4.28427 35.7334L4.03226 35.9754V42.1861V48.3868H2.01613H0V49.1934V50H25H50V49.1934V48.3868H47.9839H45.9677V30.0872V11.7776L45.7157 11.5356L45.4738 11.2835H40.3226H35.1714L34.9294 11.5356ZM44.3548 30.6418V48.3868H40.3226H36.2903V30.6418V12.8967H40.3226H44.3548V30.6418ZM29.0323 38.7077V48.3868H25H20.9677V38.7077V29.0286H25H29.0323V38.7077ZM13.7097 42.7407V48.3868H9.67742H5.64516V42.7407V37.0945H9.67742H13.7097V42.7407Z"/>
</mask>
<path d="M34.9294 11.5356L34.6774 11.7776V30.0872V48.3868H32.6613H30.6452V38.1532V27.9094L30.3931 27.6674L30.1512 27.4154H25H19.8488L19.6069 27.6674L19.3548 27.9094V38.1532V48.3868H17.3387H15.3226V42.1861V35.9754L15.0706 35.7334L14.8286 35.4813H9.67742H4.52621L4.28427 35.7334L4.03226 35.9754V42.1861V48.3868H2.01613H0V49.1934V50H25H50V49.1934V48.3868H47.9839H45.9677V30.0872V11.7776L45.7157 11.5356L45.4738 11.2835H40.3226H35.1714L34.9294 11.5356ZM44.3548 30.6418V48.3868H40.3226H36.2903V30.6418V12.8967H40.3226H44.3548V30.6418ZM29.0323 38.7077V48.3868H25H20.9677V38.7077V29.0286H25H29.0323V38.7077ZM13.7097 42.7407V48.3868H9.67742H5.64516V42.7407V37.0945H9.67742H13.7097V42.7407Z" fill="#F95A00"/>
<path d="M34.9294 11.5356L36.3723 12.9205L36.3441 12.95L36.3146 12.9782L34.9294 11.5356ZM34.6774 11.7776H32.6774V10.9252L33.2922 10.3349L34.6774 11.7776ZM34.6774 48.3868H36.6774V50.3868H34.6774V48.3868ZM30.6452 48.3868V50.3868H28.6452V48.3868H30.6452ZM30.6452 27.9094L32.0304 26.4668L32.6452 27.0571V27.9094H30.6452ZM30.3931 27.6674L29.008 29.1101L28.9785 29.0818L28.9502 29.0524L30.3931 27.6674ZM30.1512 27.4154V25.4154H31.0037L31.5941 26.0304L30.1512 27.4154ZM19.8488 27.4154L18.4059 26.0304L18.9963 25.4154H19.8488V27.4154ZM19.6069 27.6674L21.0498 29.0524L21.0215 29.0818L20.992 29.1101L19.6069 27.6674ZM19.3548 27.9094H17.3548V27.0571L17.9696 26.4668L19.3548 27.9094ZM19.3548 48.3868H21.3548V50.3868H19.3548V48.3868ZM15.3226 48.3868V50.3868H13.3226V48.3868H15.3226ZM15.3226 35.9754L16.7078 34.5327L17.3226 35.123V35.9754H15.3226ZM15.0706 35.7334L13.6854 37.176L13.6559 37.1478L13.6277 37.1183L15.0706 35.7334ZM14.8286 35.4813V33.4813H15.6812L16.2715 34.0964L14.8286 35.4813ZM4.52621 35.4813L3.08331 34.0964L3.67367 33.4813H4.52621V35.4813ZM4.28427 35.7334L5.72717 37.1183L5.69891 37.1478L5.66946 37.176L4.28427 35.7334ZM4.03226 35.9754H2.03226V35.123L2.64707 34.5327L4.03226 35.9754ZM4.03226 48.3868H6.03226V50.3868H4.03226V48.3868ZM0 48.3868H-2V46.3868H0V48.3868ZM0 50V52H-2V50H0ZM50 50H52V52H50V50ZM50 48.3868V46.3868H52V48.3868H50ZM45.9677 48.3868V50.3868H43.9677V48.3868H45.9677ZM45.9677 11.7776L47.3529 10.3349L47.9677 10.9252V11.7776H45.9677ZM45.7157 11.5356L44.3305 12.9782L44.3011 12.95L44.2728 12.9205L45.7157 11.5356ZM45.4738 11.2835V9.28351H46.3263L46.9167 9.89858L45.4738 11.2835ZM35.1714 11.2835L33.7285 9.89858L34.3188 9.28351H35.1714V11.2835ZM44.3548 48.3868H46.3548V50.3868H44.3548V48.3868ZM36.2903 48.3868V50.3868H34.2903V48.3868H36.2903ZM36.2903 12.8967H34.2903V10.8967H36.2903V12.8967ZM44.3548 12.8967V10.8967H46.3548V12.8967H44.3548ZM29.0323 48.3868H31.0323V50.3868H29.0323V48.3868ZM20.9677 48.3868V50.3868H18.9677V48.3868H20.9677ZM20.9677 29.0286H18.9677V27.0286H20.9677V29.0286ZM29.0323 29.0286V27.0286H31.0323V29.0286H29.0323ZM13.7097 48.3868H15.7097V50.3868H13.7097V48.3868ZM5.64516 48.3868V50.3868H3.64516V48.3868H5.64516ZM5.64516 37.0945H3.64516V35.0945H5.64516V37.0945ZM13.7097 37.0945V35.0945H15.7097V37.0945H13.7097ZM36.3146 12.9782L36.0626 13.2202L33.2922 10.3349L33.5442 10.0929L36.3146 12.9782ZM36.6774 11.7776V30.0872H32.6774V11.7776H36.6774ZM36.6774 30.0872V48.3868H32.6774V30.0872H36.6774ZM34.6774 50.3868H32.6613V46.3868H34.6774V50.3868ZM32.6613 50.3868H30.6452V46.3868H32.6613V50.3868ZM28.6452 48.3868V38.1532H32.6452V48.3868H28.6452ZM28.6452 38.1532V27.9094H32.6452V38.1532H28.6452ZM29.26 29.3521L29.008 29.1101L31.7783 26.2248L32.0304 26.4668L29.26 29.3521ZM28.9502 29.0524L28.7083 28.8003L31.5941 26.0304L31.836 26.2825L28.9502 29.0524ZM30.1512 29.4154H25V25.4154H30.1512V29.4154ZM25 29.4154H19.8488V25.4154H25V29.4154ZM21.2917 28.8003L21.0498 29.0524L18.164 26.2825L18.4059 26.0304L21.2917 28.8003ZM20.992 29.1101L20.74 29.3521L17.9696 26.4668L18.2217 26.2248L20.992 29.1101ZM21.3548 27.9094V38.1532H17.3548V27.9094H21.3548ZM21.3548 38.1532V48.3868H17.3548V38.1532H21.3548ZM19.3548 50.3868H17.3387V46.3868H19.3548V50.3868ZM17.3387 50.3868H15.3226V46.3868H17.3387V50.3868ZM13.3226 48.3868V42.1861H17.3226V48.3868H13.3226ZM13.3226 42.1861V35.9754H17.3226V42.1861H13.3226ZM13.9374 37.418L13.6854 37.176L16.4558 34.2907L16.7078 34.5327L13.9374 37.418ZM13.6277 37.1183L13.3857 36.8663L16.2715 34.0964L16.5135 34.3484L13.6277 37.1183ZM14.8286 37.4813H9.67742V33.4813H14.8286V37.4813ZM9.67742 37.4813H4.52621V33.4813H9.67742V37.4813ZM5.96911 36.8663L5.72717 37.1183L2.84138 34.3484L3.08331 34.0964L5.96911 36.8663ZM5.66946 37.176L5.41745 37.418L2.64707 34.5327L2.89908 34.2907L5.66946 37.176ZM6.03226 35.9754V42.1861H2.03226V35.9754H6.03226ZM6.03226 42.1861V48.3868H2.03226V42.1861H6.03226ZM4.03226 50.3868H2.01613V46.3868H4.03226V50.3868ZM2.01613 50.3868H0V46.3868H2.01613V50.3868ZM2 48.3868V49.1934H-2V48.3868H2ZM2 49.1934V50H-2V49.1934H2ZM0 48H25V52H0V48ZM25 48H50V52H25V48ZM48 50V49.1934H52V50H48ZM48 49.1934V48.3868H52V49.1934H48ZM50 50.3868H47.9839V46.3868H50V50.3868ZM47.9839 50.3868H45.9677V46.3868H47.9839V50.3868ZM43.9677 48.3868V30.0872H47.9677V48.3868H43.9677ZM43.9677 30.0872V11.7776H47.9677V30.0872H43.9677ZM44.5826 13.2202L44.3305 12.9782L47.1009 10.0929L47.3529 10.3349L44.5826 13.2202ZM44.2728 12.9205L44.0309 12.6685L46.9167 9.89858L47.1586 10.1506L44.2728 12.9205ZM45.4738 13.2835H40.3226V9.28351H45.4738V13.2835ZM40.3226 13.2835H35.1714V9.28351H40.3226V13.2835ZM36.6143 12.6685L36.3723 12.9205L33.4865 10.1506L33.7285 9.89858L36.6143 12.6685ZM46.3548 30.6418V48.3868H42.3548V30.6418H46.3548ZM44.3548 50.3868H40.3226V46.3868H44.3548V50.3868ZM40.3226 50.3868H36.2903V46.3868H40.3226V50.3868ZM34.2903 48.3868V30.6418H38.2903V48.3868H34.2903ZM34.2903 30.6418V12.8967H38.2903V30.6418H34.2903ZM36.2903 10.8967H40.3226V14.8967H36.2903V10.8967ZM40.3226 10.8967H44.3548V14.8967H40.3226V10.8967ZM46.3548 12.8967V30.6418H42.3548V12.8967H46.3548ZM31.0323 38.7077V48.3868H27.0323V38.7077H31.0323ZM29.0323 50.3868H25V46.3868H29.0323V50.3868ZM25 50.3868H20.9677V46.3868H25V50.3868ZM18.9677 48.3868V38.7077H22.9677V48.3868H18.9677ZM18.9677 38.7077V29.0286H22.9677V38.7077H18.9677ZM20.9677 27.0286H25V31.0286H20.9677V27.0286ZM25 27.0286H29.0323V31.0286H25V27.0286ZM31.0323 29.0286V38.7077H27.0323V29.0286H31.0323ZM15.7097 42.7407V48.3868H11.7097V42.7407H15.7097ZM13.7097 50.3868H9.67742V46.3868H13.7097V50.3868ZM9.67742 50.3868H5.64516V46.3868H9.67742V50.3868ZM3.64516 48.3868V42.7407H7.64516V48.3868H3.64516ZM3.64516 42.7407V37.0945H7.64516V42.7407H3.64516ZM5.64516 35.0945H9.67742V39.0945H5.64516V35.0945ZM9.67742 35.0945H13.7097V39.0945H9.67742V35.0945ZM15.7097 37.0945V42.7407H11.7097V37.0945H15.7097Z" fill="#F95A00" mask="url(#path-2-inside-1_92_184)"/>
<path d="M25.0035 17.4047C24.9323 17.5256 24.8474 17.6799 24.743 17.8788C24.8169 17.8592 24.9032 17.8453 25 17.8453C25.0953 17.8453 25.1805 17.8588 25.2536 17.8779C25.1509 17.6787 25.0697 17.5249 25.0035 17.4047ZM27.9183 25.4113C27.8827 25.2556 27.8412 25.081 27.7957 24.8961C27.7835 24.9113 27.7708 24.9262 27.7575 24.9409C27.6453 25.0649 27.5224 25.1391 27.4222 25.1837C27.5994 25.2678 27.7675 25.3448 27.9183 25.4113ZM22.5779 25.1837C22.4776 25.1391 22.3548 25.0649 22.2426 24.9409C22.2293 24.9262 22.2165 24.9113 22.2043 24.8961C22.1589 25.081 22.1174 25.2556 22.0817 25.4113C22.2326 25.3448 22.4006 25.2678 22.5779 25.1837ZM21.9632 25.9852C21.9633 25.985 21.9637 25.9825 21.9641 25.978C21.9634 25.983 21.9632 25.9853 21.9632 25.9852ZM28.0359 25.978C28.0364 25.9825 28.0367 25.985 28.0368 25.9852C28.0368 25.9853 28.0366 25.983 28.0359 25.978Z" fill="#F95A00" stroke="#F95A00" stroke-width="2"/>
<path d="M9.68084 25.4706C9.60965 25.5916 9.52478 25.7459 9.42039 25.9447C9.49422 25.9251 9.58061 25.9112 9.67739 25.9112C9.77269 25.9112 9.85792 25.9247 9.931 25.9438C9.82829 25.7446 9.74707 25.5908 9.68084 25.4706ZM12.5957 33.4772C12.56 33.3216 12.5185 33.1469 12.4731 32.962C12.4609 32.9772 12.4481 32.9922 12.4348 33.0068C12.3226 33.1308 12.1998 33.205 12.0995 33.2496C12.2768 33.3337 12.4448 33.4107 12.5957 33.4772ZM7.25524 33.2496C7.15498 33.205 7.03216 33.1308 6.91994 33.0068C6.90665 32.9922 6.89391 32.9772 6.88172 32.962C6.83624 33.1469 6.79473 33.3216 6.75909 33.4772C6.90994 33.4107 7.07798 33.3337 7.25524 33.2496ZM6.64062 34.0511C6.64067 34.051 6.64102 34.0485 6.6415 34.044C6.6408 34.0489 6.64056 34.0512 6.64062 34.0511ZM12.7133 34.0439C12.7138 34.0485 12.7141 34.051 12.7142 34.0511C12.7142 34.0512 12.714 34.0489 12.7133 34.0439Z" fill="#F95A00" stroke="#F95A00" stroke-width="2"/>
</svg>
