<svg width="50" height="50" viewBox="0 0 50 50" fill="none" xmlns="http://www.w3.org/2000/svg">
<path d="M24.6094 0.0527448C24.1895 0.276914 0.712891 15.5732 0.527344 15.7314C0.15625 16.0611 0 16.7072 0 17.894C0 18.9885 0.107422 19.4764 0.449219 19.8983C0.556641 20.017 2.32422 21.2038 4.39453 22.5488L8.1543 24.9883L8.20312 29.3266C8.25195 34.021 8.26172 34.0737 8.81836 34.5748C8.94531 34.6803 12.2461 36.8561 16.1719 39.4142L23.291 44.069H25H26.709L33.8379 39.4142C37.7539 36.8429 41.0742 34.6407 41.2207 34.4957C41.7578 33.9814 41.7969 33.5726 41.7969 29.0893V25.0015L42.7148 24.4081C43.2129 24.0916 43.6719 23.8279 43.7402 23.8279C43.8184 23.8279 43.8477 25.2784 43.8477 29.1816V34.5353L43.4277 35.1682C43.0371 35.7484 42.959 36.0253 42.3438 38.6758C41.9727 40.2713 41.6504 41.8273 41.6309 42.157C41.5918 42.6185 41.6992 43.2647 42.1387 45.124C42.959 48.6579 43.1445 49.1063 43.9941 49.7128C44.5117 50.082 45.498 50.0952 46.0352 49.7524C46.7676 49.2645 47.0117 48.7634 47.8125 46.0734C48.7988 42.79 48.7988 42.7504 47.9688 39.0186C47.2852 35.9462 47.1875 35.6297 46.7285 35.0363L46.3867 34.588V28.3113V22.0345L47.9688 20.9796C49.9219 19.7005 50 19.5818 50 17.9204C50 16.2325 49.8535 15.9556 48.4863 15.0589C47.9004 14.6765 42.4707 11.1425 36.4258 7.21297C30.166 3.13837 25.293 0.0395583 25.0977 0.0131855C24.9121 -0.0131874 24.6875 -9.50103e-07 24.6094 0.0527448ZM35.8984 10.7997C41.8262 14.6501 46.6504 17.8544 46.6113 17.9072C46.5625 17.9599 45.3711 18.7643 43.9453 19.6873C42.5195 20.6104 37.6758 23.7488 33.1738 26.6761L24.9902 31.9903L16.9629 26.7816C12.5488 23.907 7.69531 20.7554 6.17188 19.7665C4.64844 18.7907 3.38867 17.9335 3.36914 17.894C3.32031 17.7885 24.7754 3.7845 24.9805 3.7845C25.0488 3.7845 29.9609 6.93606 35.8984 10.7997ZM18.0957 31.4628C23.2031 34.7858 24.6875 35.6957 24.9902 35.6957C25.2832 35.6957 26.6113 34.8913 31.0645 31.9903C34.1992 29.9464 37.3047 27.9289 37.9688 27.5069L39.1602 26.7421L39.1406 29.3794L39.1113 32.0298L32.5391 36.3022L25.9668 40.5746H24.9707L23.9746 40.5614L17.4316 36.3022L10.8887 32.043L10.8594 29.3794L10.8398 26.7157L11.2012 26.9794C11.4062 27.1113 14.502 29.1288 18.0957 31.4628ZM45.5859 40.6801L46.0059 42.6185L45.5566 44.1218C45.3125 44.9525 45.0977 45.6514 45.0781 45.691C45.0488 45.7173 44.8535 44.9921 44.6387 44.069L44.2383 42.3944L44.6484 40.5614C44.8828 39.5593 45.0879 38.7285 45.1172 38.7285C45.1465 38.7285 45.3516 39.5988 45.5859 40.6801Z" fill="#F95A00"/>
</svg>
