<svg width="248" height="59" viewBox="0 0 248 59" fill="none" xmlns="http://www.w3.org/2000/svg">
<path d="M3.384 46.448C2.488 46.448 1.784 46.2133 1.272 45.744C0.802667 45.232 0.568 44.5067 0.568 43.568V3.76C0.568 2.82133 0.802667 2.11733 1.272 1.648C1.784 1.136 2.50933 0.879997 3.448 0.879997H26.68C27.4053 0.879997 27.96 1.072 28.344 1.456C28.728 1.84 28.92 2.37333 28.92 3.056C28.92 3.78133 28.728 4.336 28.344 4.72C27.96 5.104 27.4053 5.296 26.68 5.296H5.816V21.04H25.336C26.0613 21.04 26.616 21.232 27 21.616C27.4267 22 27.64 22.5333 27.64 23.216C27.64 23.9413 27.4267 24.496 27 24.88C26.616 25.264 26.0613 25.456 25.336 25.456H5.816V43.568C5.816 45.488 5.00533 46.448 3.384 46.448ZM45.586 46.576C42.514 46.576 40.1673 45.6373 38.546 43.76C36.9247 41.8827 36.114 39.1947 36.114 35.696V3.056C36.114 2.20266 36.3273 1.56266 36.754 1.136C37.1807 0.666665 37.8207 0.431999 38.674 0.431999C39.4847 0.431999 40.1247 0.666665 40.594 1.136C41.0633 1.56266 41.298 2.20266 41.298 3.056V35.312C41.298 37.616 41.746 39.344 42.642 40.496C43.5807 41.6053 44.946 42.16 46.738 42.16C47.122 42.16 47.4633 42.1387 47.762 42.096C48.0607 42.0533 48.3593 42.032 48.658 42.032C49.1273 41.9893 49.4473 42.096 49.618 42.352C49.8313 42.608 49.938 43.12 49.938 43.888C49.938 44.656 49.7673 45.232 49.426 45.616C49.0847 46 48.53 46.256 47.762 46.384C47.4207 46.4267 47.058 46.4693 46.674 46.512C46.29 46.5547 45.9273 46.576 45.586 46.576ZM68.755 46.576C65.4697 46.576 62.6323 45.936 60.243 44.656C57.8963 43.3333 56.0617 41.4773 54.739 39.088C53.459 36.6987 52.819 33.84 52.819 30.512C52.819 27.2693 53.459 24.4533 54.739 22.064C56.019 19.632 57.7683 17.7333 59.987 16.368C62.2483 15.0027 64.851 14.32 67.795 14.32C69.8857 14.32 71.763 14.6827 73.427 15.408C75.091 16.0907 76.499 17.0933 77.651 18.416C78.8457 19.7387 79.7417 21.3387 80.339 23.216C80.979 25.0933 81.299 27.2053 81.299 29.552C81.299 30.2347 81.107 30.7467 80.723 31.088C80.339 31.3867 79.7843 31.536 79.059 31.536H56.787V28.144H77.843L76.819 28.976C76.819 26.672 76.4777 24.7307 75.795 23.152C75.1123 21.5307 74.1097 20.2933 72.787 19.44C71.507 18.5867 69.8857 18.16 67.923 18.16C65.747 18.16 63.891 18.672 62.355 19.696C60.8617 20.6773 59.731 22.064 58.963 23.856C58.195 25.6053 57.811 27.6533 57.811 30V30.384C57.811 34.3093 58.7497 37.296 60.627 39.344C62.547 41.392 65.2563 42.416 68.755 42.416C70.2057 42.416 71.635 42.224 73.043 41.84C74.4937 41.456 75.9017 40.816 77.267 39.92C77.8643 39.536 78.3977 39.3653 78.867 39.408C79.379 39.408 79.7843 39.5573 80.083 39.856C80.3817 40.112 80.5737 40.4533 80.659 40.88C80.787 41.264 80.7443 41.6907 80.531 42.16C80.3603 42.6293 79.9977 43.0347 79.443 43.376C78.035 44.4 76.371 45.1893 74.451 45.744C72.531 46.2987 70.6323 46.576 68.755 46.576ZM88.6795 46.384C88.1248 46.384 87.6342 46.2133 87.2075 45.872C86.7808 45.5307 86.5462 45.0827 86.5035 44.528C86.5035 43.9307 86.7808 43.312 87.3355 42.672L98.5355 28.592V31.28L88.0395 18.16C87.4848 17.4773 87.2075 16.8587 87.2075 16.304C87.2502 15.7493 87.4848 15.3013 87.9115 14.96C88.3382 14.6187 88.8288 14.448 89.3835 14.448C90.0235 14.448 90.5568 14.576 90.9835 14.832C91.4528 15.0453 91.8795 15.408 92.2635 15.92L101.416 27.504H99.6235L108.84 15.92C109.224 15.408 109.629 15.0453 110.056 14.832C110.482 14.576 111.016 14.448 111.656 14.448C112.253 14.448 112.744 14.6187 113.128 14.96C113.554 15.3013 113.768 15.7707 113.768 16.368C113.81 16.9227 113.554 17.5413 113 18.224L102.568 31.152V28.784L113.768 42.672C114.28 43.312 114.514 43.9307 114.472 44.528C114.472 45.0827 114.258 45.5307 113.832 45.872C113.405 46.2133 112.893 46.384 112.296 46.384C111.698 46.384 111.165 46.256 110.696 46C110.269 45.7867 109.842 45.424 109.416 44.912L99.5595 32.496H101.416L91.5595 44.912C91.1755 45.3813 90.7488 45.744 90.2795 46C89.8528 46.256 89.3195 46.384 88.6795 46.384ZM125.76 46C124.822 46 124.097 45.7653 123.585 45.296C123.115 44.784 122.881 44.0587 122.881 43.12V3.76C122.881 2.82133 123.115 2.11733 123.585 1.648C124.097 1.136 124.822 0.879997 125.76 0.879997H140.929C144.043 0.879997 146.667 1.34933 148.801 2.288C150.977 3.184 152.641 4.50666 153.793 6.256C154.945 8.00533 155.521 10.1387 155.521 12.656C155.521 15.472 154.689 17.8187 153.025 19.696C151.403 21.5733 149.185 22.8107 146.369 23.408V22.512C149.569 22.896 152.065 24.048 153.857 25.968C155.691 27.888 156.609 30.4267 156.609 33.584C156.609 37.5947 155.307 40.6667 152.705 42.8C150.102 44.9333 146.433 46 141.697 46H125.76ZM128.001 41.776H141.185C144.598 41.776 147.158 41.0933 148.865 39.728C150.571 38.3627 151.425 36.2933 151.425 33.52C151.425 30.704 150.571 28.6347 148.865 27.312C147.158 25.9467 144.598 25.264 141.185 25.264H128.001V41.776ZM128.001 21.04H140.161C143.489 21.04 146.006 20.3573 147.713 18.992C149.462 17.6267 150.337 15.664 150.337 13.104C150.337 10.4587 149.462 8.47466 147.713 7.152C146.006 5.78666 143.489 5.104 140.161 5.104H128.001V21.04ZM174.899 46.576C171.827 46.576 169.48 45.6373 167.859 43.76C166.237 41.8827 165.427 39.1947 165.427 35.696V3.056C165.427 2.20266 165.64 1.56266 166.067 1.136C166.493 0.666665 167.133 0.431999 167.987 0.431999C168.797 0.431999 169.437 0.666665 169.907 1.136C170.376 1.56266 170.611 2.20266 170.611 3.056V35.312C170.611 37.616 171.059 39.344 171.955 40.496C172.893 41.6053 174.259 42.16 176.051 42.16C176.435 42.16 176.776 42.1387 177.075 42.096C177.373 42.0533 177.672 42.032 177.971 42.032C178.44 41.9893 178.76 42.096 178.931 42.352C179.144 42.608 179.251 43.12 179.251 43.888C179.251 44.656 179.08 45.232 178.739 45.616C178.397 46 177.843 46.256 177.075 46.384C176.733 46.4267 176.371 46.4693 175.987 46.512C175.603 46.5547 175.24 46.576 174.899 46.576ZM196.98 46.576C193.95 46.576 191.326 45.9147 189.108 44.592C186.889 43.2693 185.161 41.4133 183.924 39.024C182.729 36.592 182.132 33.7333 182.132 30.448C182.132 27.9733 182.473 25.7547 183.156 23.792C183.838 21.7867 184.841 20.08 186.164 18.672C187.486 17.264 189.044 16.1973 190.836 15.472C192.67 14.704 194.718 14.32 196.98 14.32C200.009 14.32 202.633 14.9813 204.852 16.304C207.07 17.6267 208.777 19.504 209.972 21.936C211.209 24.3253 211.828 27.1627 211.828 30.448C211.828 32.9227 211.486 35.1413 210.804 37.104C210.121 39.0667 209.118 40.7733 207.796 42.224C206.473 43.632 204.894 44.72 203.06 45.488C201.268 46.2133 199.241 46.576 196.98 46.576ZM196.98 42.416C198.9 42.416 200.585 41.9467 202.036 41.008C203.486 40.0693 204.596 38.704 205.364 36.912C206.174 35.12 206.58 32.9653 206.58 30.448C206.58 26.5653 205.705 23.6 203.956 21.552C202.249 19.504 199.924 18.48 196.98 18.48C195.017 18.48 193.31 18.9493 191.86 19.888C190.452 20.784 189.342 22.128 188.532 23.92C187.764 25.6693 187.38 27.8453 187.38 30.448C187.38 34.288 188.254 37.2533 190.004 39.344C191.753 41.392 194.078 42.416 196.98 42.416ZM233.374 58.096C231.113 58.096 228.894 57.8187 226.718 57.264C224.585 56.752 222.643 55.92 220.894 54.768C220.382 54.4693 220.041 54.1067 219.87 53.68C219.742 53.2533 219.721 52.8267 219.806 52.4C219.891 52.016 220.083 51.6533 220.382 51.312C220.681 51.0133 221.022 50.8213 221.406 50.736C221.833 50.6507 222.259 50.7147 222.686 50.928C224.563 52.08 226.355 52.8693 228.062 53.296C229.769 53.7227 231.454 53.936 233.118 53.936C236.147 53.936 238.43 53.1253 239.966 51.504C241.545 49.8827 242.334 47.536 242.334 44.464V37.232H242.974C242.334 39.7067 240.969 41.6693 238.878 43.12C236.83 44.5707 234.419 45.296 231.646 45.296C228.787 45.296 226.313 44.656 224.222 43.376C222.131 42.0533 220.51 40.2187 219.358 37.872C218.249 35.5253 217.694 32.816 217.694 29.744C217.694 27.44 218.014 25.3493 218.654 23.472C219.294 21.552 220.211 19.9307 221.406 18.608C222.643 17.2427 224.115 16.1973 225.822 15.472C227.571 14.704 229.513 14.32 231.646 14.32C234.462 14.32 236.894 15.0453 238.942 16.496C240.99 17.904 242.313 19.824 242.91 22.256L242.27 23.024V17.072C242.27 16.2187 242.483 15.5787 242.91 15.152C243.379 14.6827 244.019 14.448 244.83 14.448C245.683 14.448 246.323 14.6827 246.75 15.152C247.177 15.5787 247.39 16.2187 247.39 17.072V43.76C247.39 48.496 246.195 52.0587 243.806 54.448C241.459 56.88 237.982 58.096 233.374 58.096ZM232.606 41.072C234.611 41.072 236.339 40.624 237.79 39.728C239.241 38.7893 240.35 37.4667 241.118 35.76C241.929 34.0533 242.334 32.048 242.334 29.744C242.334 26.288 241.459 23.5573 239.71 21.552C237.961 19.504 235.593 18.48 232.606 18.48C230.643 18.48 228.937 18.9493 227.486 19.888C226.035 20.784 224.905 22.0853 224.094 23.792C223.326 25.456 222.942 27.44 222.942 29.744C222.942 33.2 223.817 35.952 225.566 38C227.315 40.048 229.662 41.072 232.606 41.072Z" fill="white"/>
</svg>
