<svg width="50" height="40" viewBox="0 0 50 40" fill="none" xmlns="http://www.w3.org/2000/svg">
<path d="M3.75 40C2.75 40 1.875 39.625 1.125 38.875C0.375 38.125 0 37.25 0 36.25V3.75C0 2.75 0.375 1.875 1.125 1.125C1.875 0.375 2.75 0 3.75 0H46.25C47.25 0 48.125 0.375 48.875 1.125C49.625 1.875 50 2.75 50 3.75V36.25C50 37.25 49.625 38.125 48.875 38.875C48.125 39.625 47.25 40 46.25 40H3.75ZM25 21.125L3.75 7.1875V36.25H46.25V7.1875L25 21.125ZM25 17.375L46 3.75H4.0625L25 17.375Z" fill="#F95A00"/>
</svg>
