<svg width="48" height="48" viewBox="0 0 48 48" fill="none" xmlns="http://www.w3.org/2000/svg">
<g clip-path="url(#clip0_402_431)">
<path d="M39.1795 11.4606C39.1796 12.01 39.0168 12.547 38.7117 13.0038C38.4066 13.4606 37.9728 13.8166 37.4654 14.0269C36.9579 14.2371 36.3994 14.2922 35.8607 14.185C35.3219 14.0779 34.827 13.8134 34.4386 13.425C34.0501 13.0365 33.7856 12.5416 33.6785 12.0029C33.5713 11.4641 33.6264 10.9057 33.8367 10.3982C34.0469 9.8907 34.403 9.45697 34.8598 9.15185C35.3165 8.84674 35.8536 8.68394 36.4029 8.68406C37.1392 8.68421 37.8454 8.97679 38.3661 9.49747C38.8867 10.0181 39.1793 10.7243 39.1795 11.4606V11.4606ZM48.0003 24.0002L47.9998 24.0351L47.8421 34.1043C47.8011 37.735 46.3406 41.2053 43.7732 43.7727C41.2058 46.3401 37.7354 47.8006 34.1048 47.8416L24.0002 48.0003L23.9652 47.9996L13.896 47.8424C10.2653 47.8014 6.79486 46.3409 4.22735 43.7736C1.65984 41.2062 0.199217 37.7358 0.158058 34.1051L0 24.0002L0.000685778 23.9652L0.157944 13.8956C0.199219 10.265 1.65988 6.79469 4.22736 4.22734C6.79485 1.65998 10.2652 0.199495 13.8959 0.158401L24.0002 0L24.0351 0.000685778L34.1044 0.157944C37.7349 0.199041 41.2052 1.65955 43.7726 4.22692C46.34 6.7943 47.8005 10.2646 47.8416 13.8952L48.0003 24.0002ZM43.5304 24.0002L43.3733 13.9658C43.3455 11.4976 42.3526 9.13844 40.6072 7.39306C38.8619 5.64769 36.5027 4.6548 34.0345 4.62689L24.0002 4.4702L13.9658 4.62689C11.4976 4.65486 9.13846 5.64775 7.39308 7.39311C5.6477 9.13847 4.65478 11.4976 4.62678 13.9658L4.47009 24.0002L4.62678 34.0345C4.65469 36.5027 5.64759 38.8619 7.39299 40.6073C9.13838 42.3527 11.4976 43.3455 13.9658 43.3734L24.0002 43.5301L34.0345 43.3734C36.5027 43.3456 38.862 42.3527 40.6073 40.6074C42.3527 38.862 43.3455 36.5027 43.3733 34.0345L43.5304 24.0002ZM36.3248 24.0002C36.3248 26.4378 35.602 28.8206 34.2477 30.8474C32.8935 32.8742 30.9686 34.4539 28.7165 35.3868C26.4644 36.3196 23.9863 36.5637 21.5956 36.0881C19.2048 35.6125 17.0087 34.4387 15.2851 32.715C13.5614 30.9914 12.3876 28.7953 11.9121 26.4045C11.4365 24.0138 11.6806 21.5356 12.6135 19.2836C13.5463 17.0315 15.126 15.1067 17.1529 13.7524C19.1797 12.3982 21.5626 11.6754 24.0002 11.6754C27.2678 11.6791 30.4005 12.9788 32.711 15.2893C35.0215 17.5999 36.3212 20.7326 36.3248 24.0002V24.0002ZM31.8554 24.0002C31.8554 22.4465 31.3947 20.9278 30.5315 19.6359C29.6684 18.3441 28.4415 17.3373 27.0061 16.7427C25.5708 16.1482 23.9913 15.9926 22.4675 16.2957C20.9437 16.5988 19.544 17.347 18.4454 18.4456C17.3468 19.5442 16.5987 20.9439 16.2956 22.4677C15.9925 23.9915 16.1481 25.571 16.7427 27.0064C17.3372 28.4417 18.3441 29.6686 19.6359 30.5317C20.9278 31.3949 22.4465 31.8555 24.0002 31.8555C26.0828 31.8531 28.0794 31.0247 29.552 29.5521C31.0246 28.0794 31.853 26.0828 31.8553 24.0002H31.8554Z" fill="white"/>
</g>
<defs>
<clipPath id="clip0_402_431">
<rect width="48.0003" height="48" fill="white"/>
</clipPath>
</defs>
</svg>
