<svg width="42" height="42" viewBox="0 0 42 42" fill="none" xmlns="http://www.w3.org/2000/svg">
<path d="M2.66797 0C1.20703 0 0 1.20703 0 2.66797V39.332C0 40.793 1.20703 42 2.66797 42H39.332C40.793 42 42 40.7969 42 39.332V2.66797C42 1.20703 40.7969 0 39.332 0H2.66797ZM2.66797 2H39.332C39.7031 2 40 2.29688 40 2.66797V39.332C40 39.7031 39.7031 40 39.332 40H2.66797C2.29688 40 2 39.7031 2 39.332V2.66797C2 2.29688 2.29688 2 2.66797 2ZM19 19V31.5742C19 33.5039 18.2695 34 17 34C15.6719 34 14.75 33.1719 14.1406 32.0977L11 34C11.9102 35.9258 14.1406 38 17.2344 38C20.6562 38 23 36.1797 23 32.1836V19H19ZM31.4531 19C28.0469 19 25.8633 21.1797 25.8633 24.043C25.8633 27.1484 27.6953 28.6172 30.4492 29.7891L31.4023 30.1992C33.1406 30.9609 34 31.4258 34 32.7344C34 33.8242 33.1719 34.6133 31.5898 34.6133C29.707 34.6133 28.8164 33.3359 28 32L25 34C26.1211 36.2148 28.1328 38 31.6758 38C35.3008 38 38 36.1172 38 32.6836C38 29.4961 36.1719 28.0781 32.9258 26.6875L31.9727 26.2812C30.3359 25.5703 29.625 25.1094 29.625 23.9648C29.625 23.0391 30.3359 22.3281 31.4531 22.3281C32.5508 22.3281 33.2539 22.793 33.9062 23.9648L36.8789 22.0586C35.625 19.8437 33.8789 19 31.4531 19Z" fill="#F95A00"/>
</svg>
