<svg width="47" height="47" viewBox="0 0 47 47" fill="none" xmlns="http://www.w3.org/2000/svg">
<path d="M10.5204 47H0.776339V15.6205H10.5204V31.3103V47ZM5.64315 11.3401C2.5273 11.3401 0 8.75919 0 5.64327C2.23019e-08 4.14658 0.594544 2.7112 1.65284 1.65288C2.71114 0.594557 4.14649 0 5.64315 0C7.1398 0 8.57516 0.594557 9.63346 1.65288C10.6918 2.7112 11.2863 4.14658 11.2863 5.64327C11.2863 8.75919 8.75795 11.3401 5.64315 11.3401ZM46.9895 47H37.2664V31.7247C37.2664 28.0842 37.1929 23.4155 32.2002 23.4155C27.1341 23.4155 26.3578 27.3708 26.3578 31.4624V47H16.6242V15.6205H25.9696V19.901H26.106C27.4069 17.4355 30.5846 14.8337 35.3255 14.8337C45.1871 14.8337 47 21.3278 47 29.7628V47H46.9895Z" fill="white"/>
</svg>
