<svg width="1280" height="111" viewBox="0 0 1280 111" fill="none" xmlns="http://www.w3.org/2000/svg">
<path fill-rule="evenodd" clip-rule="evenodd" d="M0 66.6L42.6667 57.72C85.3333 48.84 170.667 31.08 256 35.52C341.333 39.96 426.667 66.6 512 84.36C597.333 102.12 682.667 111 768 111C853.333 111 938.667 102.12 1024 86.58C1109.33 71.04 1194.67 48.84 1237.33 37.74L1280 26.64V0H1237.33C1194.67 0 1109.33 0 1024 0C938.667 0 853.333 0 768 0C682.667 0 597.333 0 512 0C426.667 0 341.333 0 256 0C170.667 0 85.3333 0 42.6667 0H0V66.6Z" fill="#232323"/>
</svg>
