<svg width="50" height="50" viewBox="0 0 50 50" fill="none" xmlns="http://www.w3.org/2000/svg">
<path d="M15.9994 0C14.7264 0 13.5458 0.316086 12.5 0.983932C9.23152 3.07711 7.98743 8.17801 8.64665 14.5288C3.35979 17.071 0 20.8142 0 25C0 29.1858 3.35979 32.929 8.64665 35.4712C7.98777 41.8217 9.23152 46.9229 12.5 49.0161C13.5437 49.6839 14.7243 50 15.9994 50C18.7132 50 21.8497 48.4892 25 45.8973C28.1506 48.4892 31.2909 50 34.0047 50C35.2776 50 36.4582 49.6839 37.5041 49.0161C40.7725 46.9229 42.0166 41.8219 41.3574 35.4712C46.6423 32.9291 50 29.1849 50 25C50 20.8142 46.6402 17.071 41.3534 14.5288C42.0122 8.17826 40.7685 3.07711 37.5 0.983932C36.4562 0.313775 35.2756 0 34.0006 0C31.2868 0 28.1503 1.51079 25 4.10273C21.8495 1.51079 18.7122 0 15.9994 0ZM15.9994 4.04405C17.6278 4.04405 19.7812 5.00447 22.1191 6.78372C20.7445 8.22267 19.3982 9.85891 18.103 11.6808C16.0022 12.0149 14.0216 12.502 12.1867 13.1116C12.1768 12.9704 12.1535 12.8223 12.146 12.6828C11.9231 8.56942 12.7375 5.50316 14.3229 4.48637C14.7917 4.18595 15.3389 4.04405 15.9994 4.04405ZM34.0006 4.04405C34.659 4.04405 35.2083 4.18595 35.6771 4.48637C37.2625 5.50085 38.0769 8.56942 37.854 12.6828C37.8464 12.8223 37.8232 12.9704 37.8133 13.1116C35.9773 12.5016 33.9951 12.015 31.8929 11.6808C30.5977 9.85917 29.2554 8.2225 27.8809 6.78372C30.2187 5.00477 32.3731 4.04405 34.0006 4.04405ZM25 9.35187C25.5647 9.92204 26.1256 10.5247 26.6927 11.1843C26.1307 11.1634 25.5716 11.1347 25 11.1347C24.4298 11.1347 23.8721 11.1635 23.3114 11.1843C23.878 10.5254 24.4358 9.9215 25 9.35187ZM25 15.1787C26.7264 15.1787 28.3628 15.2858 29.9154 15.4721C30.8622 16.8996 31.7954 18.4089 32.6701 20.0894C33.5085 21.7001 34.2499 23.3488 34.904 25C34.2498 26.6521 33.509 28.3034 32.6701 29.9151C31.7981 31.5907 30.8672 33.0903 29.9235 34.5144C28.3161 34.7094 26.6671 34.8213 25 34.8213C23.2736 34.8213 21.6372 34.7142 20.0846 34.5279C19.1378 33.1004 18.2046 31.5956 17.3299 29.9151C16.491 28.3034 15.7504 26.6521 15.096 25C15.7499 23.3488 16.4915 21.7001 17.3299 20.0894C18.2023 18.4138 19.1325 16.9097 20.0765 15.4856C21.6839 15.2906 23.3329 15.1787 25 15.1787ZM34.8877 16.429C35.7143 16.6503 36.5089 16.8893 37.2559 17.1556C37.0866 18.0038 36.8797 18.8683 36.6455 19.7418C36.3774 19.1838 36.1174 18.624 35.8276 18.0673C35.5295 17.4947 35.1984 16.9802 34.8877 16.429ZM15.1082 16.4335C14.7986 16.983 14.4696 17.4965 14.1724 18.0673C13.8826 18.6241 13.6225 19.1837 13.3545 19.7418C13.1198 18.8665 12.9095 18.001 12.7401 17.1511C13.5008 16.8845 14.2934 16.6484 15.1082 16.4335ZM9.3099 18.636C9.74885 20.6918 10.3578 22.823 11.141 24.9955C10.3594 27.1629 9.75307 29.2901 9.31396 31.3414C5.6859 29.3981 3.64583 26.979 3.64583 25C3.64583 22.9687 5.62891 20.6538 8.95182 18.8121C9.06524 18.7491 9.194 18.6975 9.3099 18.636ZM40.686 18.6586C44.3141 20.6019 46.3542 23.021 46.3542 25C46.3542 27.0313 44.3711 29.3462 41.0482 31.1879C40.9348 31.2509 40.806 31.3025 40.6901 31.364C40.2509 29.3069 39.647 27.1738 38.8631 25C39.6437 22.8345 40.2473 20.7082 40.686 18.6586ZM25 20.3782C22.6979 20.3782 20.8333 22.4465 20.8333 25C20.8333 27.5535 22.6979 29.6218 25 29.6218C27.3021 29.6218 29.1667 27.5535 29.1667 25C29.1667 22.4465 27.3021 20.3782 25 20.3782ZM13.3545 30.2582C13.6227 30.8164 13.8865 31.3758 14.1764 31.9327C14.4743 32.5049 14.8019 33.0202 15.1123 33.571C14.2857 33.3497 13.4911 33.1107 12.7441 32.8444C12.9135 31.9956 13.1201 31.1322 13.3545 30.2582ZM36.6455 30.2627C36.8799 31.1372 37.0907 31.9998 37.2599 32.8489C36.4992 33.1155 35.7066 33.3516 34.8918 33.5665C35.2014 33.017 35.5304 32.5035 35.8276 31.9327C36.1168 31.377 36.378 30.8196 36.6455 30.2627ZM12.1867 36.8884C14.0227 37.4984 16.0049 37.985 18.1071 38.3192C19.4027 40.1417 20.7439 41.7815 22.1191 43.2208C19.7813 44.9995 17.6277 45.9605 15.9994 45.9605C15.341 45.9605 14.7917 45.814 14.3229 45.5136C12.7375 44.4992 11.9231 41.4351 12.146 37.3217C12.1536 37.1807 12.1767 37.0311 12.1867 36.8884ZM37.8133 36.8884C37.8233 37.0311 37.8464 37.1807 37.854 37.3217C38.0769 41.4351 37.2625 44.4968 35.6771 45.5136C35.2083 45.814 34.6611 45.9605 34.0006 45.9605C32.3723 45.9605 30.2187 44.9998 27.8809 43.2208C29.2562 41.7813 30.6011 40.142 31.897 38.3192C33.9978 37.9851 35.9784 37.498 37.8133 36.8884ZM23.3073 38.8157C23.8693 38.8366 24.4284 38.8653 25 38.8653C25.5716 38.8653 26.1307 38.8366 26.6927 38.8157C26.1256 39.4753 25.5647 40.078 25 40.6481C24.4352 40.078 23.8744 39.4753 23.3073 38.8157Z" fill="#F95A00"/>
</svg>
