<svg width="44" height="38" viewBox="0 0 44 38" fill="none" xmlns="http://www.w3.org/2000/svg">
<path d="M38.05 28.6L35.55 26.1C37.15 24.4 38.375 22.6583 39.225 20.875C40.075 19.0917 40.5 16.9 40.5 14.3C40.5 11.7 40.075 9.50833 39.225 7.725C38.375 5.94167 37.15 4.2 35.55 2.5L38.05 0C39.9167 1.93333 41.375 4.04167 42.425 6.325C43.475 8.60833 44 11.2667 44 14.3C44 17.3333 43.475 19.9917 42.425 22.275C41.375 24.5583 39.9167 26.6667 38.05 28.6ZM31.1 21.5L28.6 19C29.2 18.3333 29.6667 17.625 30 16.875C30.3333 16.125 30.5 15.2667 30.5 14.3C30.5 13.3333 30.3333 12.475 30 11.725C29.6667 10.975 29.2 10.2667 28.6 9.6L31.1 7.1C31.9667 8.03333 32.6667 9.125 33.2 10.375C33.7333 11.625 34 12.9333 34 14.3C34 15.6667 33.7333 16.975 33.2 18.225C32.6667 19.475 31.9667 20.5667 31.1 21.5ZM16 21.8C13.8 21.8 12 21.1 10.6 19.7C9.2 18.3 8.5 16.5 8.5 14.3C8.5 12.1 9.2 10.3 10.6 8.9C12 7.5 13.8 6.8 16 6.8C18.2 6.8 20 7.5 21.4 8.9C22.8 10.3 23.5 12.1 23.5 14.3C23.5 16.5 22.8 18.3 21.4 19.7C20 21.1 18.2 21.8 16 21.8V21.8ZM0 37.85V33.15C0 31.8833 0.316667 30.8083 0.95 29.925C1.58333 29.0417 2.4 28.35 3.4 27.85C5.1 26.9833 7.10833 26.2667 9.425 25.7C11.7417 25.1333 13.9333 24.85 16 24.85C18.0667 24.85 20.25 25.1333 22.55 25.7C24.85 26.2667 26.85 26.9833 28.55 27.85C29.55 28.35 30.375 29.0417 31.025 29.925C31.675 30.8083 32 31.8833 32 33.15V37.85H0ZM3 34.85H29V33.15C29 32.6167 28.8583 32.125 28.575 31.675C28.2917 31.225 27.8833 30.85 27.35 30.55C25.75 29.65 23.9333 28.975 21.9 28.525C19.8667 28.075 17.9 27.85 16 27.85C14.1 27.85 12.125 28.0917 10.075 28.575C8.025 29.0583 6.2 29.7167 4.6 30.55C4.13333 30.7833 3.75 31.1417 3.45 31.625C3.15 32.1083 3 32.6167 3 33.15V34.85ZM16 18.8C17.3 18.8 18.375 18.375 19.225 17.525C20.075 16.675 20.5 15.6 20.5 14.3C20.5 13 20.075 11.925 19.225 11.075C18.375 10.225 17.3 9.8 16 9.8C14.7 9.8 13.625 10.225 12.775 11.075C11.925 11.925 11.5 13 11.5 14.3C11.5 15.6 11.925 16.675 12.775 17.525C13.625 18.375 14.7 18.8 16 18.8Z" fill="#F95A00"/>
</svg>
